<?xml version="1.0" encoding="UTF-8"?>
<svg xmlns="http://www.w3.org/2000/svg" version="1.1" width="500" height="500" viewBox="0 0 500 500"><rect x="0" y="0" width="500" height="500" fill="#ffffff"/><g transform="scale(17.241)"><g transform="translate(0,0)"><g><g transform="translate(3.5,3.5)"><path fill-rule="evenodd" d="M-3.5 -3.5L-3.5 3.5L3.5 3.5L3.5 -3.5ZM-2.5 -2.5L-2.5 2.5L2.5 2.5L2.5 -2.5Z" fill="#000000"/><path fill-rule="evenodd" d="M-1.5 -1.5L-1.5 1.5L1.5 1.5L1.5 -1.5Z" fill="#000000"/></g></g><g><g transform="translate(25.5,3.5)"><g transform="rotate(90)"><path fill-rule="evenodd" d="M-3.5 -3.5L-3.5 3.5L3.5 3.5L3.5 -3.5ZM-2.5 -2.5L-2.5 2.5L2.5 2.5L2.5 -2.5Z" fill="#000000"/><path fill-rule="evenodd" d="M-1.5 -1.5L-1.5 1.5L1.5 1.5L1.5 -1.5Z" fill="#000000"/></g></g></g><g><g transform="translate(3.5,25.5)"><g transform="rotate(-90)"><path fill-rule="evenodd" d="M-3.5 -3.5L-3.5 3.5L3.5 3.5L3.5 -3.5ZM-2.5 -2.5L-2.5 2.5L2.5 2.5L2.5 -2.5Z" fill="#000000"/><path fill-rule="evenodd" d="M-1.5 -1.5L-1.5 1.5L1.5 1.5L1.5 -1.5Z" fill="#000000"/></g></g></g><path fill-rule="evenodd" d="M9 0L9 1L11 1L11 2L9 2L9 3L8 3L8 5L9 5L9 6L8 6L8 7L9 7L9 9L10 9L10 10L9 10L9 11L10 11L10 12L8 12L8 10L6 10L6 11L7 11L7 12L6 12L6 13L5 13L5 10L4 10L4 9L2 9L2 8L0 8L0 12L1 12L1 11L2 11L2 13L1 13L1 14L0 14L0 16L1 16L1 14L2 14L2 13L3 13L3 14L6 14L6 15L9 15L9 16L5 16L5 15L2 15L2 18L1 18L1 17L0 17L0 21L1 21L1 19L2 19L2 20L3 20L3 19L2 19L2 18L4 18L4 19L5 19L5 20L4 20L4 21L7 21L7 20L6 20L6 19L7 19L7 18L8 18L8 17L9 17L9 19L8 19L8 24L9 24L9 26L10 26L10 27L8 27L8 29L9 29L9 28L10 28L10 29L11 29L11 28L12 28L12 27L14 27L14 26L15 26L15 25L18 25L18 26L17 26L17 27L18 27L18 28L16 28L16 27L15 27L15 29L20 29L20 28L22 28L22 29L23 29L23 27L24 27L24 25L26 25L26 24L27 24L27 26L26 26L26 27L25 27L25 28L24 28L24 29L27 29L27 28L28 28L28 24L29 24L29 23L28 23L28 24L27 24L27 21L28 21L28 22L29 22L29 21L28 21L28 20L29 20L29 19L28 19L28 18L29 18L29 17L27 17L27 19L28 19L28 20L25 20L25 19L23 19L23 18L26 18L26 17L24 17L24 16L25 16L25 15L26 15L26 16L27 16L27 15L29 15L29 14L26 14L26 13L27 13L27 12L28 12L28 13L29 13L29 11L27 11L27 9L26 9L26 8L24 8L24 9L23 9L23 11L22 11L22 9L21 9L21 8L20 8L20 7L21 7L21 6L20 6L20 5L21 5L21 2L18 2L18 0L16 0L16 1L17 1L17 2L16 2L16 3L17 3L17 4L18 4L18 3L20 3L20 4L19 4L19 6L18 6L18 5L17 5L17 6L16 6L16 4L15 4L15 0L13 0L13 1L12 1L12 0ZM20 0L20 1L21 1L21 0ZM12 2L12 4L11 4L11 7L10 7L10 6L9 6L9 7L10 7L10 8L11 8L11 10L10 10L10 11L11 11L11 10L14 10L14 11L12 11L12 12L11 12L11 14L10 14L10 13L9 13L9 14L10 14L10 15L11 15L11 16L10 16L10 18L11 18L11 19L12 19L12 20L13 20L13 22L14 22L14 19L15 19L15 18L14 18L14 16L13 16L13 17L12 17L12 15L13 15L13 14L14 14L14 13L13 13L13 12L14 12L14 11L17 11L17 10L19 10L19 11L21 11L21 13L20 13L20 14L19 14L19 12L16 12L16 13L15 13L15 15L16 15L16 13L17 13L17 14L18 14L18 15L17 15L17 16L16 16L16 17L17 17L17 18L16 18L16 19L17 19L17 21L16 21L16 22L15 22L15 23L16 23L16 24L18 24L18 25L19 25L19 23L20 23L20 20L19 20L19 21L18 21L18 19L19 19L19 18L20 18L20 19L21 19L21 20L22 20L22 18L23 18L23 17L22 17L22 18L20 18L20 16L21 16L21 15L22 15L22 16L23 16L23 14L22 14L22 13L25 13L25 12L22 12L22 11L21 11L21 9L20 9L20 8L17 8L17 9L14 9L14 8L15 8L15 7L16 7L16 6L15 6L15 7L14 7L14 5L15 5L15 4L14 4L14 2ZM9 3L9 5L10 5L10 3ZM12 4L12 5L13 5L13 4ZM12 6L12 9L13 9L13 6ZM17 6L17 7L18 7L18 6ZM19 6L19 7L20 7L20 6ZM5 8L5 9L8 9L8 8ZM1 9L1 10L2 10L2 11L3 11L3 10L2 10L2 9ZM28 9L28 10L29 10L29 9ZM24 10L24 11L25 11L25 10ZM26 11L26 12L27 12L27 11ZM3 12L3 13L4 13L4 12ZM7 12L7 13L6 13L6 14L8 14L8 12ZM12 13L12 14L13 14L13 13ZM24 14L24 15L25 15L25 14ZM19 15L19 16L20 16L20 15ZM3 16L3 17L4 17L4 18L5 18L5 17L4 17L4 16ZM17 16L17 17L18 17L18 16ZM6 17L6 18L7 18L7 17ZM12 18L12 19L13 19L13 18ZM9 19L9 20L10 20L10 19ZM11 21L11 22L10 22L10 24L12 24L12 26L11 26L11 25L10 25L10 26L11 26L11 27L10 27L10 28L11 28L11 27L12 27L12 26L14 26L14 25L15 25L15 24L14 24L14 23L13 23L13 24L12 24L12 21ZM21 21L21 24L24 24L24 21ZM25 21L25 22L26 22L26 21ZM16 22L16 23L18 23L18 22ZM22 22L22 23L23 23L23 22ZM25 23L25 24L26 24L26 23ZM18 26L18 27L19 27L19 26ZM20 26L20 27L22 27L22 26ZM26 27L26 28L27 28L27 27ZM13 28L13 29L14 29L14 28Z" fill="#000000"/></g></g></svg>
